Coordinates
version=1
nRows=17
nColumns=24
inDegrees=yes

Units are S.I. units (second, meters, Newtons, ...)
Angles are in degrees.

endheader
time	pelvis_tilt	pelvis_list	pelvis_rotation	pelvis_tx	pelvis_ty	pelvis_tz	hip_flexion_r	hip_adduction_r	hip_rotation_r	knee_angle_r	ankle_angle_r	subtalar_angle_r	mtp_angle_r	hip_flexion_l	hip_adduction_l	hip_rotation_l	knee_angle_l	ankle_angle_l	subtalar_angle_l	mtp_angle_l	lumbar_extension	lumbar_bending	lumbar_rotation
      0.61200000	     -5.43305822	      1.72749232	     11.76874985	     -0.73883662	      0.87180401	      0.26488938	     35.13046361	     -4.63252674	     -9.66176399	     -7.22189061	      3.14217657	      0.49940892	      6.77604662	    -16.55977403	      0.79068055	      6.14824166	     -9.53767296	     12.89419407	      5.15878649	     18.62565300	     -1.42747209	     -3.62173282	    -14.46290513
      0.61616667	     -5.49722033	      1.63075525	     11.78578828	     -0.73290134	      0.87074275	      0.26525994	     35.29433831	     -4.48215319	     -9.58571660	     -7.93430683	      3.04818081	      0.39616574	      6.71794877	    -16.61353944	      0.60597744	      6.07060484	    -10.04326430	     12.73438070	      5.20962652	     18.69106859	     -1.29831855	     -3.45274675	    -14.24151354
      0.62033333	     -5.50631432	      1.51172738	     11.80361064	     -0.72689629	      0.86981123	      0.26565708	     35.37495712	     -4.29415597	     -9.55109738	     -8.61834231	      2.84559773	      0.21275866	      6.69814231	    -16.72936599	      0.38225909	      5.99373120	    -10.53069330	     12.54050520	      5.20081391	     18.73105835	     -1.24664024	     -3.27679745	    -14.19726832
      0.62450000	     -5.59492214	      1.38573774	     11.80164065	     -0.72086875	      0.86879002	      0.26613890	     35.51354481	     -4.08025147	     -9.35422977	     -9.24472822	      2.48889767	     -0.20515302	      6.67084318	    -16.70451681	      0.16607077	      5.82068672	    -11.13056915	     12.35521105	      5.40793591	     18.87898929	     -1.08619414	     -3.06163291	    -14.03856538
      0.62866667	     -5.56304622	      1.22650652	     11.78822629	     -0.71475959	      0.86796513	      0.26665495	     35.50846676	     -3.80584557	     -9.24131856	     -9.85394240	      2.11330958	     -0.63521063	      6.66466505	    -16.78639309	     -0.12106157	      5.51563966	    -11.77228005	     12.21783271	      5.73293617	     19.50456336	     -1.07198205	     -2.80933911	    -13.90042726
      0.63283333	     -5.64324814	      1.10116219	     11.76681133	     -0.70860185	      0.86704491	      0.26714078	     35.64344988	     -3.58937947	     -9.15941112	    -10.52650336	      1.69994279	     -0.92510118	      6.67041135	    -16.79313561	     -0.32183946	      5.43995120	    -12.32866225	     11.85244620	      5.67055122	     19.64452923	     -0.87683699	     -2.60399150	    -13.81858270
      0.63700000	     -5.68364904	      0.95347800	     11.72797807	     -0.70242077	      0.86620146	      0.26773944	     35.72110789	     -3.31310353	     -8.98967104	    -11.16027941	      1.16360925	     -1.53154222	      6.72045600	    -16.80644227	     -0.56387207	      5.27000078	    -12.95311450	     11.61736328	      5.77341777	     20.02171038	     -0.77590044	     -2.39170011	    -13.62821872
      0.64116667	     -5.73521795	      0.76609269	     11.69362532	     -0.69617234	      0.86537787	      0.26831545	     35.81102534	     -3.01684936	     -8.92558127	    -11.80165604	      0.63622263	     -1.87712047	      7.55430715	    -16.74137191	     -0.85836322	      4.96096149	    -13.68816110	     11.28392426	      5.98470429	     24.14003278	     -0.63841464	     -2.10613492	    -13.52432159
      0.64533333	     -5.77851899	      0.62160923	     11.63033662	     -0.68988721	      0.86464343	      0.26892132	     35.88637788	     -2.73493744	     -8.77242145	    -12.44117596	      0.06355914	     -2.43059776	      7.55714539	    -16.76707033	     -1.07277215	      4.90914399	    -14.27842721	     10.80928806	      5.81958244	     24.22226909	     -0.51463551	     -1.88597001	    -13.35812950
      0.64950000	     -5.84001936	      0.45343523	     11.56396573	     -0.68356602	      0.86390929	      0.26955889	     35.98739670	     -2.43324209	     -8.64503147	    -13.09555667	     -0.53399442	     -2.95189108	      7.58143832	    -16.71803528	     -1.31734839	      4.75848440	    -14.97186319	     10.36615954	      5.80076565	     24.36295805	     -0.36009039	     -1.63228739	    -13.18280713
      0.65366667	     -5.91170002	      0.27139799	     11.49489076	     -0.67720007	      0.86321593	      0.27018385	     36.09832026	     -2.12605607	     -8.54521328	    -13.75493380	     -1.10035606	     -3.34375901	      7.60385429	    -16.63475533	     -1.57107804	      4.60943067	    -15.70576545	      9.81787703	      5.75881773	     24.48340004	     -0.18131864	     -1.34490183	    -13.04784943
      0.65783333	     -5.97269947	      0.08972279	     11.40812531	     -0.67083367	      0.86255665	      0.27089100	     36.21571978	     -1.79723529	     -8.39193965	    -14.44717325	     -1.73648670	     -4.01662186	      7.66373071	    -16.53285980	     -1.82553546	      4.44031138	    -16.50144927	      9.39830820	      5.76244167	     24.75166840	     -0.03819766	     -1.08970304	    -12.82329405
      0.66200000	     -6.04415808	     -0.10189754	     11.32014018	     -0.66441534	      0.86195129	      0.27159187	     36.34319967	     -1.46667799	     -8.26374001	    -15.15260619	     -2.31615315	     -4.54622988	      7.74213156	    -16.40346442	     -2.08691965	      4.27003181	    -17.31145621	      8.85918294	      5.73458356	     25.09501481	      0.13632343	     -0.80831500	    -12.63079230
      0.66616667	     -6.11790913	     -0.29911829	     11.22434791	     -0.65795601	      0.86139487	      0.27225148	     36.48522901	     -1.14381570	     -8.18224115	    -15.89908770	     -2.76158465	     -4.85705603	      7.77844816	    -16.25866184	     -2.34179551	      4.13640788	    -18.14277148	      8.17856827	      5.63587064	     25.27330523	      0.32861165	     -0.49067498	    -12.50957576
      0.67033333	     -6.18555520	     -0.51806262	     11.11170630	     -0.65149975	      0.86084584	      0.27302498	     36.63820873	     -0.77536427	     -8.04245805	    -16.67229592	     -3.27817051	     -5.42074189	      8.79305988	    -16.05826098	     -2.64088370	      3.85630497	    -19.08036728	      7.63142809	      5.66753980	     30.03803974	      0.48127090	     -0.18409097	    -12.30251131
      0.67450000	     -6.26038143	     -0.71086139	     11.01362392	     -0.64501243	      0.86039713	      0.27369757	     36.80187723	     -0.46114069	     -7.96091688	    -17.49136532	     -3.63076835	     -5.75423775	      8.77930594	    -15.86783347	     -2.88133029	      3.77711269	    -19.97928515	      6.88946525	      5.49681503	     30.06046333	      0.66769642	      0.11785124	    -12.15576728
      0.67866667	     -6.35158068	     -0.91617521	     10.89860771	     -0.63853299	      0.85994202	      0.27443036	     37.00208530	     -0.12343970	     -7.83481547	    -18.35137840	     -3.94037672	     -6.14404554	      8.76476917	    -15.62028253	     -3.13326981	      3.65565179	    -20.94904040	      6.19217056	      5.36485737	     30.11064557	      0.84806912	      0.41881383	    -11.97210679
